<svg xmlns="http://www.w3.org/2000/svg" xmlns:xlink="http://www.w3.org/1999/xlink" width="548.41" height="150.14" viewBox="0 0 548.41 150.14">
  <defs>
    <clipPath id="clip-_20px_Padding">
      <rect width="548.41" height="150.14"/>
    </clipPath>
  </defs>
  <g id="_20px_Padding" data-name="20px Padding" clip-path="url(#clip-_20px_Padding)">
    <path id="JNJ_MT_Logo_SingleLine_Red_RGB" d="M57.23,49.32c-5.37,0-8.37-5.09-8.37-14.29,0-9.34,3-14.29,8.37-14.29s8.37,5.02,8.37,14.29c0,9.34-3,14.29-8.37,14.29m0-32.42c-10.95,0-17.01,8.16-17.01,18.13s6.07,18.13,17.01,18.13S74.24,45,74.24,35.03,68.18,16.9,57.23,16.9m76.06,0c-5.16,0-8.02,2.23-9.62,5.09h-.42V17.6h-8.23V52.46h8.23V29.93c0-5.16,2.65-8.16,6.9-8.16,4.11,0,5.93,2.72,5.93,6.83V52.44h8.23V28.54c-.01-7.18-3.77-11.64-11.02-11.64m29.69,0c-7.6,0-13.32,3.21-13.32,10.04,0,5.79,3.97,8.92,8.44,10.04l6.97,1.74c3.69.91,5.37,2.23,5.37,5.16,0,3.56-2.51,5.58-6.9,5.58-4.74,0-7.18-2.3-7.95-8.09l-7.39,2.09c.42,6,6,9.69,14.43,9.69,9.41,0,14.5-4.39,14.5-11.36,0-6.55-4.53-9.27-9.27-10.46l-6.69-1.67c-3.35-.84-4.81-2.37-4.81-4.6,0-2.79,2.37-4.46,5.93-4.46,4.18,0,6.76,2.3,7.11,6.69l6.97-2.09c-.84-4.89-5.65-8.3-13.39-8.3m34.58,32.42c-5.37,0-8.37-5.09-8.37-14.29,0-9.34,3-14.29,8.37-14.29s8.37,5.02,8.37,14.29c-.01,9.34-3,14.29-8.37,14.29m0-32.42c-10.95,0-17.01,8.16-17.01,18.13s6.07,18.13,17.01,18.13S214.57,45,214.57,35.03,208.5,16.9,197.56,16.9m40.15,0c-5.16,0-8.02,2.23-9.62,5.09h-.42V17.6h-8.23V52.46h8.23V29.93c0-5.16,2.65-8.16,6.9-8.16,4.11,0,5.93,2.72,5.93,6.83V52.44h8.23V28.54c0-7.18-3.77-11.64-11.02-11.64m122.2,32.42c-5.37,0-8.37-5.09-8.37-14.29,0-9.34,3-14.29,8.37-14.29s8.37,5.02,8.37,14.29c0,9.34-3,14.29-8.37,14.29m0-32.42c-10.95,0-17.01,8.16-17.01,18.13s6.07,18.13,17.01,18.13S376.92,45,376.92,35.03,370.86,16.9,359.91,16.9m76.05,0c-5.16,0-8.02,2.23-9.62,5.09h-.42V17.6h-8.23V52.46h8.23V29.93c0-5.16,2.65-8.16,6.9-8.16,4.11,0,5.93,2.72,5.93,6.83V52.44h8.23V28.54c0-7.18-3.77-11.64-11.02-11.64m29.7,0c-7.6,0-13.32,3.21-13.32,10.04,0,5.79,3.97,8.92,8.44,10.04l6.97,1.74c3.69.91,5.37,2.23,5.37,5.16,0,3.56-2.51,5.58-6.9,5.58-4.74,0-7.18-2.3-7.95-8.09l-7.39,2.09c.42,6,6,9.69,14.43,9.69,9.41,0,14.5-4.39,14.5-11.36,0-6.55-4.53-9.27-9.27-10.46l-6.69-1.67c-3.35-.84-4.81-2.37-4.81-4.6,0-2.79,2.37-4.46,5.93-4.46,4.18,0,6.76,2.3,7.11,6.69l6.97-2.09c-.84-4.89-5.65-8.3-13.39-8.3m34.57,32.42c-5.37,0-8.37-5.09-8.37-14.29,0-9.34,3-14.29,8.37-14.29s8.37,5.02,8.37,14.29c0,9.34-3,14.29-8.37,14.29m0-32.42c-10.95,0-17.01,8.16-17.01,18.13s6.06,18.13,17.01,18.13S517.24,45,517.24,35.03,511.18,16.9,500.23,16.9m40.16,0c-5.16,0-8.02,2.23-9.62,5.09h-.42V17.6h-8.23V52.46h8.23V29.93c0-5.16,2.65-8.16,6.9-8.16,4.11,0,5.93,2.72,5.93,6.83V52.44h8.23V28.54c-.01-7.18-3.77-11.64-11.02-11.64M35.35,3.65H26.7V39.7c0,5.86-2.23,9.34-7.53,9.34-5.23,0-7.53-3.69-7.53-10.04V32.31L3,34.47v3C3,46.6,7.53,53.58,19.18,53.58s16.17-6.97,16.17-16.11V3.65m52,0H79.12v48.8h8.23V29.93c0-5.16,2.65-8.16,6.9-8.16,4.11,0,5.93,2.72,5.93,6.83V52.44h8.23V28.54c0-7.18-3.77-11.64-11.02-11.64-5.16,0-8.02,2.23-9.62,5.09h-.42V3.65m250.67,0h-8.64V39.7c0,5.86-2.23,9.34-7.53,9.34-5.23,0-7.53-3.69-7.53-10.04V32.31l-8.64,2.16v3c0,9.13,4.53,16.11,16.18,16.11s16.17-6.97,16.17-16.11V3.65m51.99,0h-8.23v48.8h8.23V29.93c0-5.16,2.65-8.16,6.9-8.16,4.11,0,5.93,2.72,5.93,6.83V52.44h8.23V28.54c0-7.18-3.76-11.64-11.02-11.64-5.16,0-8.02,2.23-9.62,5.09h-.42V3.65M275.84,48.48c-6.69,0-10.81-5.44-10.81-11.23a10.791,10.791,0,0,1,4.25-8.85l15.76,17.22a18.654,18.654,0,0,1-9.2,2.86m15.34-8.58L277.52,24.84a18.317,18.317,0,0,1,6.76-1.33c5.65,0,9.13,3.28,9.13,8.92a13.7,13.7,0,0,1-2.23,7.47M275.63,22.82l-3-3.35c-2.65-2.93-3.42-4.74-3.42-6.9,0-4.04,2.58-6.34,6.62-6.34,4.11,0,6.55,2.37,6.55,6.69.01,3.98-1.94,7.74-6.75,9.9m.42-20.29c-9.62,0-14.36,5.37-14.36,12.06,0,3.62,1.53,7.25,5.58,11.64l.07.14c-6.83,3.28-9.97,8.58-9.97,14.01,0,7.18,5.51,13.18,14.01,13.18,4.88,0,10.6-2.02,15.76-5.65l4.18,4.53h10.95v-.35l-8.92-9.83c3.77-4.46,5.93-9.34,5.93-13.6,0-5.3-3.56-8.85-9.13-8.85a25.286,25.286,0,0,0-8.37,1.67l-.14-.28c5.3-2.86,7.53-5.51,7.53-9.2-.01-5.28-4.75-9.47-13.12-9.47M67.41,90.77c.77-6.13,3.9-9.62,9.41-9.62,5.23,0,8.3,3.14,8.44,9.62H67.41m9.41-14.36c-9.2,0-15.62,6.48-15.62,18.41,0,11.43,5.93,17.85,15.62,17.85,7.95,0,12.97-4.53,14.22-11.36l-5.3-1.39c-.91,5.86-4.04,7.88-8.37,7.88-6.9,0-9.97-5.09-10.18-12.9H91.1V92.95c.02-12.22-6.61-16.54-14.28-16.54m95.5,14.36c.77-6.13,3.9-9.62,9.41-9.62,5.23,0,8.3,3.14,8.44,9.62H172.32m9.41-14.36c-9.2,0-15.62,6.48-15.62,18.41,0,11.43,5.93,17.85,15.62,17.85,7.95,0,12.97-4.53,14.22-11.36l-5.3-1.39c-.91,5.86-4.04,7.88-8.37,7.88-6.9,0-9.97-5.09-10.18-12.9h23.91V92.95c.02-12.22-6.61-16.54-14.28-16.54m36.18,0c-9.55,0-16.04,6.69-16.04,18.48,0,11.57,6.34,17.78,15.76,17.78,8.51,0,13.32-5.23,14.29-12.41l-5.51-1.33c-.98,6.55-3.77,8.78-8.37,8.78-6.69,0-10.11-4.88-10.11-13.25,0-8.72,3.63-13.11,9.83-13.11,4.39,0,7.6,2.16,8.65,8.37l5.51-1.33c-.97-7.1-5.78-11.98-14.01-11.98M53.2,63.16H44L29.57,102.48,15.07,63.16H5.44v48.8H11.5V69.93l15.55,42.04h4.67L47.13,69.86v42.11H53.2V63.16m59.38,44.56c-5.72,0-9.55-4.11-9.55-13.18,0-9.13,3.83-13.18,9.55-13.18s9.55,4.04,9.55,13.18c0,9.06-3.83,13.18-9.55,13.18m15.2-44.56H122V83.8c-1.26-3.84-4.32-7.39-10.39-7.39-7.81,0-14.64,6.14-14.64,18.34,0,12.34,6.83,17.92,14.15,17.92,5.51,0,9.55-3.21,10.88-7.74v2.65a25.3,25.3,0,0,0,.35,4.39h5.86a47.211,47.211,0,0,1-.42-7.25V63.16m43.91,0H134.05v5.09h15.83v43.72h6.07V68.25h15.76V63.16m72.62,0h-5.79v48.8h5.79V89.03c0-4.88,2.44-8.16,7.6-8.16,5.09,0,7.53,3.28,7.53,8.16v22.94h5.79V87.85c0-6.55-4.04-11.43-11.23-11.43-4.81,0-8.37,2.16-9.69,6.07V63.16" transform="translate(-3 17.47)" fill="#eb1700"/>
  </g>
</svg>
